<svg xmlns="http://www.w3.org/2000/svg" viewBox="0 0 704 128">
  <defs>
    <g id="alien-hit">
      <ellipse cx="88" cy="116" rx="40" ry="8" fill="#08141e" opacity=".8"/>
      <path d="M38 78c0-28 22-50 50-50s50 22 50 50v24H38z" fill="#52c579" stroke="#ebfff1" stroke-width="2"/>
      <ellipse cx="88" cy="82" rx="30" ry="20" fill="#d6ffc9" stroke="#ebfff1" stroke-width="2"/>
      <circle cx="69" cy="62" r="10" fill="#173325" stroke="#ebfff1" stroke-width="2"/>
      <circle cx="107" cy="62" r="10" fill="#173325" stroke="#ebfff1" stroke-width="2"/>
      <path d="M62 58l14 8M62 66l14-8M100 58l14 8M100 66l14-8" stroke="#ff7f7f" stroke-width="2"/>
      <path d="M72 94c8-3 24-3 32 0" stroke="#1a5139" stroke-width="3" stroke-linecap="round"/>
    </g>
  </defs>

  <g transform="translate(0,0)">
    <use href="#alien-hit"/>
    <circle cx="126" cy="54" r="6" fill="#fff0a3"/>
  </g>
  <g transform="translate(176,1)">
    <use href="#alien-hit"/>
    <circle cx="50" cy="44" r="5" fill="#fff0a3"/>
    <circle cx="128" cy="70" r="4" fill="#ffd36f"/>
  </g>
  <g transform="translate(352,0)">
    <use href="#alien-hit"/>
    <circle cx="136" cy="48" r="7" fill="#ffe18f"/>
  </g>
  <g transform="translate(528,1)">
    <use href="#alien-hit"/>
    <circle cx="46" cy="62" r="4" fill="#ffd36f"/>
  </g>
</svg>
