<svg xmlns="http://www.w3.org/2000/svg" viewBox="0 0 1408 128">
  <defs>
    <g id="alien-base">
      <ellipse cx="88" cy="116" rx="40" ry="8" fill="#08141e" opacity=".8"/>
      <path d="M38 78c0-28 22-50 50-50s50 22 50 50v24H38z" fill="#3fb66c" stroke="#d3ffe0" stroke-width="2"/>
      <ellipse cx="88" cy="82" rx="30" ry="20" fill="#b9f4a8" stroke="#d3ffe0" stroke-width="2"/>
      <circle cx="69" cy="62" r="10" fill="#173325" stroke="#d3ffe0" stroke-width="2"/>
      <circle cx="107" cy="62" r="10" fill="#173325" stroke="#d3ffe0" stroke-width="2"/>
      <circle cx="69" cy="62" r="4" fill="#ff6363"/>
      <circle cx="107" cy="62" r="4" fill="#ff6363"/>
      <path d="M74 92c6 5 22 5 28 0" stroke="#1a5139" stroke-width="3" stroke-linecap="round"/>
      <path d="M57 38l-10-11M118 38l10-11" stroke="#d3ffe0" stroke-width="3" stroke-linecap="round"/>
    </g>
  </defs>

  <g transform="translate(0,0)"><use href="#alien-base"/></g>
  <g transform="translate(176,1)"><use href="#alien-base"/><rect x="66" y="59" width="6" height="2" fill="#ffd0d0"/></g>
  <g transform="translate(352,0)"><use href="#alien-base"/></g>
  <g transform="translate(528,2)"><use href="#alien-base"/><rect x="104" y="59" width="6" height="2" fill="#ffd0d0"/></g>
  <g transform="translate(704,0)"><use href="#alien-base"/></g>
  <g transform="translate(880,1)"><use href="#alien-base"/></g>
  <g transform="translate(1056,0)"><use href="#alien-base"/><rect x="66" y="59" width="6" height="2" fill="#ffd0d0"/></g>
  <g transform="translate(1232,1)"><use href="#alien-base"/></g>
</svg>
