<svg xmlns="http://www.w3.org/2000/svg" viewBox="0 0 1280 160">
  <defs>
    <g id="marine-base">
      <ellipse cx="80" cy="146" rx="40" ry="8" fill="#07101f" opacity=".9"/>
      <path d="M52 82h58l10 14v32H40V96z" fill="#3e80ff" stroke="#d2f4ff" stroke-width="2"/>
      <rect x="58" y="90" width="46" height="9" rx="2" fill="#ffd36f" stroke="#fff2bf" stroke-width="1"/>
      <path d="M49 108h62l8 10v28H41v-28z" fill="#56b8ff" stroke="#d2f4ff" stroke-width="2"/>
      <rect x="67" y="116" width="28" height="11" rx="2" fill="#0d2648"/>
      <path d="M118 108l27 6-8 11-22-3z" fill="#86d7ff" stroke="#dff8ff" stroke-width="2"/>
      <path d="M42 112l-12 7 6 14 11-6z" fill="#8adfff" stroke="#dff8ff" stroke-width="2"/>
      <path d="M54 145h16v11H49v-4zM92 145h16v11H80v-4z" fill="#49a4ff" stroke="#d2f4ff" stroke-width="2"/>
    </g>
  </defs>

  <g transform="translate(0,1)"><use href="#marine-base"/></g>
  <g transform="translate(160,0)"><use href="#marine-base"/><rect x="120" y="115" width="6" height="2" fill="#9ef1ff"/></g>
  <g transform="translate(320,1)"><use href="#marine-base"/><rect x="58" y="91" width="46" height="8" rx="2" fill="#ffe08b"/></g>
  <g transform="translate(480,2)"><use href="#marine-base"/><rect x="118" y="114" width="7" height="3" fill="#9ef1ff"/></g>
  <g transform="translate(640,1)"><use href="#marine-base"/></g>
  <g transform="translate(800,0)"><use href="#marine-base"/><rect x="120" y="114" width="8" height="2" fill="#9ef1ff"/></g>
  <g transform="translate(960,1)"><use href="#marine-base"/><rect x="59" y="90" width="45" height="9" rx="2" fill="#ffe493"/></g>
  <g transform="translate(1120,2)"><use href="#marine-base"/></g>
</svg>
